<svg width="18" height="18" viewBox="0 0 18 18" fill="none" xmlns="http://www.w3.org/2000/svg">
<path fill-rule="evenodd" clip-rule="evenodd" d="M4 0H18V13C18 14.4966 17.8857 15.7146 17.4569 16.5722C17.2244 17.0372 16.8887 17.4214 16.4242 17.6748C15.9734 17.9207 15.4805 18 15 18L3.22245 17.9936C3.14891 17.9979 3.07474 18 3 18C2.9165 18 2.83365 17.9968 2.75153 17.9903C2.13713 17.9415 1.60881 17.7089 1.19097 17.32C0.788752 16.9457 0.536831 16.472 0.373484 16.0037C0.0548078 15.0902 0 13.9748 0 13V6H4V0ZM4 8H2V13C2 13.9587 2.06366 14.7768 2.26188 15.345C2.35698 15.6176 2.46311 15.7718 2.55355 15.856C2.6238 15.9214 2.71533 15.9752 2.8773 15.9935L3.1529 15.9936C3.36576 15.9747 3.46568 15.9188 3.51943 15.8765C3.58105 15.828 3.66633 15.7301 3.74904 15.5086C3.9328 15.0164 4 14.2189 4 13V8ZM5.69535 15.995L15 16C15.2691 15.9999 15.4017 15.9543 15.4665 15.919C15.5176 15.8911 15.5881 15.8378 15.6681 15.6778C15.8643 15.2854 16 14.5034 16 13V2H6V13C6 14.0928 5.95745 15.1503 5.69535 15.995Z" fill="#1C1C1C"/>
</svg>
