<svg width="16" height="16" viewBox="0 0 16 16" fill="none" xmlns="http://www.w3.org/2000/svg">
<path fill-rule="evenodd" clip-rule="evenodd" d="M8 15.9998C12.4183 15.9998 16 12.418 16 7.99976C16 3.58148 12.4183 -0.000244141 8 -0.000244141C3.58172 -0.000244141 0 3.58148 0 7.99976C0 12.418 3.58172 15.9998 8 15.9998ZM11.7908 6.06191C12.0459 5.73561 11.9882 5.26425 11.6619 5.0091C11.3356 4.75396 10.8643 4.81164 10.6091 5.13794L7.31758 9.34742L5.26163 7.7415C4.9352 7.48652 4.46387 7.54444 4.20889 7.87087C3.95391 8.19731 4.01183 8.66863 4.33826 8.92361L6.98497 10.991C7.31128 11.2459 7.78242 11.1881 8.03747 10.8619L11.7908 6.06191Z" fill="#59D19E"/>
</svg>
