<svg width="13" height="13" viewBox="0 0 13 13" fill="none" xmlns="http://www.w3.org/2000/svg">
<path fill-rule="evenodd" clip-rule="evenodd" d="M0.292893 10.2934C-0.0976311 10.6839 -0.0976311 11.317 0.292893 11.7076C0.683417 12.0981 1.31658 12.0981 1.70711 11.7076L6.00048 7.41419L10.2953 11.709C10.6858 12.0995 11.319 12.0995 11.7095 11.709C12.1001 11.3185 12.1001 10.6853 11.7095 10.2948L7.4147 5.99997L11.7076 1.70711C12.0981 1.31658 12.0981 0.683418 11.7076 0.292893C11.317 -0.097631 10.6839 -0.097631 10.2934 0.292893L6.00048 4.58576L1.70908 0.294354C1.31855 -0.0961701 0.685389 -0.0961701 0.294865 0.294354C-0.0956594 0.684879 -0.0956594 1.31804 0.294865 1.70857L4.58627 5.99997L0.292893 10.2934Z" fill="white"/>
</svg>
