<svg width="25" height="23" viewBox="0 0 25 23" fill="none" xmlns="http://www.w3.org/2000/svg">
<path fill-rule="evenodd" clip-rule="evenodd" d="M12 1.30005C6.09072 1.30005 1.30005 6.09072 1.30005 12C1.30005 14.0524 1.88856 15.963 2.88825 17.5893C3.0907 17.9187 3.52181 18.0216 3.85116 17.8191C4.18052 17.6167 4.28339 17.1856 4.08094 16.8562C3.20972 15.4389 2.70005 13.7804 2.70005 12C2.70005 6.86392 6.86392 2.70005 12 2.70005C17.137 2.70005 21.3001 6.86388 21.3001 12C21.3001 13.7806 20.7912 15.4391 19.9201 16.8562C19.7176 17.1856 19.8205 17.6167 20.1498 17.8191C20.4792 18.0216 20.9103 17.9187 21.1128 17.5893C22.1126 15.9628 22.7001 14.0522 22.7001 12C22.7001 6.09076 17.9103 1.30005 12 1.30005ZM7.66394 10.1818C7.66394 7.78789 9.60643 5.8454 12.0003 5.8454C14.3942 5.8454 16.3367 7.78789 16.3367 10.1818C16.3367 12.5756 14.3942 14.5181 12.0003 14.5181C9.60643 14.5181 7.66394 12.5756 7.66394 10.1818ZM12.0003 7.2454C10.3796 7.2454 9.06394 8.56109 9.06394 10.1818C9.06394 11.8024 10.3796 13.1181 12.0003 13.1181C13.621 13.1181 14.9367 11.8024 14.9367 10.1818C14.9367 8.56109 13.621 7.2454 12.0003 7.2454ZM7.98584 17.5243C9.13236 17.0357 10.5204 16.7548 12.0002 16.7548C13.4799 16.7548 14.868 17.0357 16.0145 17.5243C17.1506 18.0084 18.1052 18.7218 18.633 19.6267C18.8278 19.9607 18.715 20.3893 18.381 20.584C18.047 20.7788 17.6184 20.666 17.4237 20.332C17.0978 19.7733 16.4329 19.2244 15.4656 18.8122C14.5087 18.4044 13.3095 18.1548 12.0002 18.1548C10.6908 18.1548 9.49159 18.4044 8.53469 18.8122C7.56744 19.2244 6.90251 19.7733 6.57664 20.332C6.38187 20.666 5.95326 20.7788 5.61931 20.584C5.28536 20.3893 5.17253 19.9607 5.3673 19.6267C5.89507 18.7218 6.84969 18.0084 7.98584 17.5243Z" fill="#111D33"/>
</svg>
