<svg width="19" height="20" viewBox="0 0 19 20" fill="none" xmlns="http://www.w3.org/2000/svg">
<path opacity="0.4" fill-rule="evenodd" clip-rule="evenodd" d="M11.6669 17.3336H18.3334C18.7014 17.3336 19.0001 17.0363 19.0001 16.667V3.33389C19.0001 2.9659 18.7014 2.66724 18.3334 2.66724H11.6669C11.2989 2.66724 11.0002 2.9659 11.0002 3.33389V6.0005V8.66712V11.3337V14.0004V16.667C11.0002 17.0363 11.2989 17.3336 11.6669 17.3336ZM11.0002 14.0004C11.0002 13.631 11.2989 13.3337 11.6669 13.3337H15.6668C16.0348 13.3337 16.3335 13.6324 16.3335 14.0004C16.3335 14.3683 16.0348 14.667 15.6668 14.667H11.6669C11.2989 14.667 11.0002 14.3697 11.0002 14.0004ZM11.0002 11.3337C11.0002 10.9644 11.2989 10.6671 11.6669 10.6671H15.6668C16.0348 10.6671 16.3335 10.9657 16.3335 11.3337C16.3335 11.7017 16.0348 12.0004 15.6668 12.0004H11.6669C11.2989 12.0004 11.0002 11.7031 11.0002 11.3337ZM11.0002 8.66712C11.0002 8.29779 11.2989 8.00046 11.6669 8.00046H15.6668C16.0348 8.00046 16.3335 8.29912 16.3335 8.66712C16.3335 9.03511 16.0348 9.33377 15.6668 9.33377H11.6669C11.2989 9.33377 11.0002 9.03644 11.0002 8.66712ZM15.6668 6.66715H11.6669C11.2989 6.66715 11.0002 6.36982 11.0002 6.0005C11.0002 5.63117 11.2989 5.33384 11.6669 5.33384H15.6668C16.0348 5.33384 16.3335 5.6325 16.3335 6.0005C16.3335 6.36849 16.0348 6.66715 15.6668 6.66715Z" fill="white"/>
<path fill-rule="evenodd" clip-rule="evenodd" d="M11.544 0.012354C11.736 -0.026312 11.94 0.0270204 12.092 0.155018C12.2453 0.281683 12.3333 0.468346 12.3333 0.667009V19.3333C12.3333 19.532 12.2453 19.72 12.092 19.8467C11.972 19.9467 11.8213 20 11.6666 20C11.6253 20 11.5853 19.996 11.544 19.988L0.877486 17.988C0.561492 17.9294 0.333496 17.6534 0.333496 17.3334V2.66697C0.333496 2.34698 0.562825 2.07098 0.877486 2.01232L11.544 0.012354ZM8.66645 14.1782C8.03124 14.1782 7.32383 13.3901 6.71268 12.3113C6.26719 12.3291 5.84409 12.3825 5.45569 12.4625C4.7438 13.8861 3.93677 14.9998 3.3217 14.9998C2.64564 14.9998 2.41729 14.183 2.41729 13.8102C2.41729 12.6383 3.63008 11.946 4.9699 11.6074C5.22287 11.08 5.468 10.5095 5.67955 9.94373C5.36782 8.99902 5.17586 8.0762 5.17586 7.39007C5.17586 6.95499 5.24917 6.60201 5.39356 6.33932C5.57377 6.01233 5.86424 5.8331 6.21067 5.8331C6.51456 5.8331 6.76977 5.98976 6.92815 6.27502C7.05575 6.5035 7.11732 6.79765 7.11732 7.17458C7.11732 7.82104 6.88002 8.83621 6.5112 9.92321C6.68918 10.4164 6.89737 10.9042 7.11844 11.3482C7.6322 11.3523 8.33849 11.4097 8.91438 11.6464C9.74324 11.9857 9.91729 12.5439 9.91729 12.953C9.91673 13.542 9.52553 14.1782 8.66645 14.1782ZM6.21012 6.79013C6.08868 6.79013 6.06069 6.84075 6.04223 6.87427C6.01088 6.93105 5.95828 7.07334 5.95828 7.38938C5.95828 7.73963 6.01536 8.15008 6.11442 8.58858C6.26105 8.029 6.34444 7.51936 6.33269 7.11575C6.32373 6.79013 6.26049 6.79013 6.21012 6.79013ZM3.20147 13.8131L3.20083 13.8095C3.20083 13.4647 3.63905 13.0843 4.34701 12.7922C3.92055 13.5269 3.53383 14.0229 3.32116 14.0414C3.23925 14.0414 3.20632 13.8424 3.20147 13.8131ZM8.66477 12.5528C8.40621 12.4468 8.06818 12.3722 7.68089 12.3339C8.04075 12.873 8.39278 13.2205 8.66589 13.2205C8.98826 13.2205 9.13265 13.0857 9.13265 12.9516C9.13321 12.8258 8.94964 12.6698 8.66477 12.5528Z" fill="white"/>
</svg>
