<svg width="17" height="19" viewBox="0 0 17 19" fill="none" xmlns="http://www.w3.org/2000/svg">
<path fill-rule="evenodd" clip-rule="evenodd" d="M3.47873 1.07826C4.14786 0.411894 5.07061 0 6.08957 0H12.5412C14.5847 0 16.2412 1.65655 16.2412 3.7V14.6231C16.2412 16.6665 14.5847 18.3231 12.5412 18.3231H6.08957C5.07062 18.3231 4.14786 17.9112 3.47873 17.2448V17.5538C1.58782 17.5538 0.0549316 16.021 0.0549316 14.13V4.19303C0.0549316 2.30212 1.58782 0.76923 3.47873 0.76923V1.07826ZM2.64404 2.34883C1.94275 2.66674 1.45493 3.37292 1.45493 4.19303V14.13C1.45493 14.9502 1.94274 15.6563 2.64404 15.9742C2.47977 15.5557 2.38957 15.0999 2.38957 14.6231V3.7C2.38957 3.22317 2.47977 2.7674 2.64404 2.34883ZM6.08957 1.4C4.81932 1.4 3.78957 2.42975 3.78957 3.7V14.6231C3.78957 15.8933 4.81932 16.9231 6.08957 16.9231H12.5412C13.8115 16.9231 14.8412 15.8933 14.8412 14.6231V3.7C14.8412 2.42975 13.8115 1.4 12.5412 1.4H6.08957ZM9.59578 11.9613C9.32401 11.6864 9.32659 11.2432 9.60154 10.9714L10.7244 9.86154H6.20249C5.81589 9.86154 5.50249 9.54814 5.50249 9.16154C5.50249 8.77494 5.81589 8.46154 6.20249 8.46154H10.7244L9.60154 7.35169C9.32659 7.07992 9.32401 6.63671 9.59578 6.36176C9.86755 6.08681 10.3108 6.08423 10.5857 6.356L12.9204 8.66369C13.0534 8.7952 13.1283 8.97448 13.1283 9.16154C13.1283 9.3486 13.0534 9.52788 12.9204 9.65938L10.5857 11.9671C10.3108 12.2388 9.86755 12.2363 9.59578 11.9613Z" fill="#2B2D38"/>
</svg>
