<svg width="24" height="24" viewBox="0 0 24 24" fill="none" xmlns="http://www.w3.org/2000/svg">
<path d="M11.2795 18.1327C9.395 16.8343 8.15966 14.6613 8.15966 12.1997C8.15966 9.73814 9.395 7.56509 11.2795 6.26671C10.1199 5.46776 8.71443 5 7.19971 5C3.22342 5 0 8.22342 0 12.1997C0 16.176 3.22342 19.3994 7.19971 19.3994C8.71443 19.3994 10.1199 18.9317 11.2795 18.1327Z" fill="#3EAC85"/>
<path d="M24 12.1997C24 8.22342 20.7766 5 16.8003 5C12.824 5 9.60057 8.22342 9.60057 12.1997C9.60057 16.176 12.824 19.3994 16.8003 19.3994C20.7766 19.3994 24 16.176 24 12.1997Z" fill="#3EAC85"/>
</svg>
