<svg width="16" height="20" viewBox="0 0 16 20" fill="none" xmlns="http://www.w3.org/2000/svg">
<path d="M1.5835 0C0.89314 0 0.333496 0.559644 0.333496 1.25V18.75C0.333496 19.4404 0.89314 20 1.5835 20H5.3335C6.02385 20 6.5835 19.4404 6.5835 18.75V1.25C6.5835 0.559644 6.02385 0 5.3335 0H1.5835Z" fill="white"/>
<path d="M10.3335 0C9.64314 0 9.0835 0.559644 9.0835 1.25V18.75C9.0835 19.4404 9.64314 20 10.3335 20H14.0835C14.7739 20 15.3335 19.4404 15.3335 18.75V1.25C15.3335 0.559644 14.7739 0 14.0835 0H10.3335Z" fill="white"/>
</svg>
