<svg width="24" height="24" viewBox="0 0 24 24" fill="none" xmlns="http://www.w3.org/2000/svg">
<path d="M21.753 22.2391C21.6917 22.0738 21.6006 21.9388 21.5095 21.8038C21.4541 21.7217 21.3987 21.6396 21.35 21.5508C21.0378 21.1435 20.6742 20.7876 20.3061 20.4365C20.2398 20.4134 20.1931 20.3707 20.1464 20.3279C20.1024 20.2877 20.0583 20.2474 19.9979 20.2233C19.9463 20.1583 19.8755 20.1125 19.8048 20.0667C19.7652 20.0411 19.7257 20.0155 19.6896 19.9865C19.4836 19.8287 19.2565 19.6923 19.026 19.5591C18.6272 19.3011 18.1378 19.1342 17.6482 18.9673L17.5081 18.9194C16.9269 18.7812 16.3159 18.6732 15.6828 18.5874L15.6367 18.5807C15.0235 18.4915 14.4112 18.4023 13.9517 18.1605C13.7619 18.1052 13.6072 18.0146 13.4524 17.9241C13.3827 17.8833 13.313 17.8425 13.2401 17.805C13.1783 17.7635 13.1146 17.7241 13.051 17.6847C12.8902 17.5851 12.7295 17.4855 12.6001 17.3543C12.4435 17.2602 12.3286 17.1246 12.2138 16.9889C12.162 16.9277 12.1102 16.8665 12.0545 16.8091C12.028 16.7578 11.9939 16.7141 11.9599 16.6705C11.9142 16.612 11.8686 16.5536 11.8413 16.477C11.8 16.4615 11.7792 16.4253 11.7585 16.3891C11.7476 16.37 11.7366 16.351 11.7227 16.3349C11.7053 16.316 11.6948 16.2903 11.6844 16.2646C11.6674 16.2229 11.6504 16.1812 11.6037 16.1691C11.5684 16.422 11.5767 16.7199 11.6037 16.9753C11.6211 17.0353 11.6322 17.1015 11.6434 17.1676C11.6528 17.2232 11.6622 17.2788 11.6753 17.3308C11.6818 17.3641 11.6961 17.4035 11.7108 17.4441C11.7401 17.5251 11.7712 17.611 11.7463 17.6626C9.84248 17.5669 8.45218 16.9579 7.24092 16.1691C6.64349 15.7704 6.13044 15.2879 5.65262 14.7699C5.59881 14.6962 5.54406 14.6235 5.48931 14.5508C5.33002 14.3393 5.17084 14.128 5.03549 13.8924C4.90236 13.6739 4.78571 13.4386 4.66902 13.2034C4.61806 13.1006 4.56709 12.9979 4.51474 12.8965C4.23492 12.18 3.97148 11.4477 3.87413 10.5493C3.74486 9.71252 3.77899 8.64595 3.96855 7.86971C4.02408 7.52669 4.12492 7.22945 4.22574 6.93228C4.25106 6.85767 4.27637 6.78306 4.30096 6.70774C4.38315 6.53738 4.46484 6.36616 4.53761 6.18626C4.58017 6.1254 4.6144 6.05618 4.64864 5.98695C4.69814 5.88686 4.74765 5.78675 4.82232 5.71186C5.1732 5.05902 5.68955 4.57117 6.22155 4.09946C6.79392 3.67594 7.44907 3.33497 8.23681 3.12742C8.99091 2.95474 10.0242 2.92624 10.8456 3.10358C12.5048 3.44345 13.7603 4.18813 14.8055 5.14292C15.8684 6.07888 16.6853 7.26213 17.2476 8.69964C17.8288 10.07 18.0279 12.1963 17.5081 13.7501C17.2962 13.6303 17.083 13.5114 16.8676 13.3944L16.7551 13.3614C16.5365 13.2968 16.318 13.2323 16.062 13.2048C15.7006 13.1992 15.3493 13.2042 15.1132 13.3237C15.5842 13.2761 15.9631 13.4035 16.2517 13.5134C16.425 13.579 16.5219 13.626 16.6544 13.7027C16.918 13.8548 17.1501 13.998 17.342 14.2006C17.8981 14.6884 18.2953 15.3343 18.4806 16.1926C18.4822 16.2175 18.5108 16.2113 18.504 16.1691C18.5299 16.1642 18.5401 16.1442 18.5504 16.124L18.5517 16.1215L18.5757 16.0935C18.6006 16.0646 18.6256 16.0357 18.6467 16.0029C18.7094 15.9312 18.7697 15.8571 18.8122 15.7657C18.9389 15.6154 19.0452 15.4446 19.1441 15.2677C19.3063 15.0329 19.4411 14.7708 19.576 14.5085C19.6291 14.4054 19.6822 14.3021 19.737 14.2006C20.0755 13.4325 20.3497 12.6005 20.5197 11.6637C20.8587 9.57689 20.4549 7.59613 19.737 6.13868C19.0031 4.66742 17.9782 3.48711 16.6544 2.60569C15.3184 1.72905 13.7524 1.08172 11.6037 1.0169C11.5982 0.993954 11.5892 0.998679 11.5749 1.00613C11.5641 1.01178 11.5502 1.01901 11.5327 1.0169C10.398 0.978497 9.47937 1.13908 8.56909 1.37267C8.46362 1.40844 8.35659 1.44266 8.24955 1.47687C7.93136 1.57858 7.61314 1.6803 7.33595 1.82298C7.07267 1.90856 6.84424 2.02887 6.61584 2.14917C6.47152 2.22518 6.3272 2.30119 6.1741 2.36843C6.10182 2.43566 6.01249 2.48596 5.92319 2.53626C5.8354 2.5857 5.74763 2.63512 5.6761 2.7006C5.58325 2.74669 5.50265 2.80503 5.42209 2.86334C5.33762 2.92447 5.25319 2.98557 5.15473 3.03252C5.02669 3.14497 4.89417 3.25283 4.76168 3.36066C4.58036 3.50824 4.39909 3.65578 4.22941 3.81499C4.05747 3.97057 3.89968 4.14055 3.74187 4.31054C3.62949 4.43159 3.51711 4.55265 3.39961 4.66852C3.36154 4.75957 3.29552 4.82317 3.22947 4.88679L3.20992 4.90566C3.15966 4.99738 3.09802 5.07822 3.02036 5.14292C3.00425 5.20102 2.96968 5.24078 2.93506 5.28058C2.90344 5.31694 2.87179 5.35334 2.85416 5.40379C2.816 5.43189 2.79212 5.47426 2.76822 5.51666C2.74094 5.56506 2.71364 5.61349 2.66508 5.6408C2.62037 5.74706 2.55973 5.83706 2.49913 5.927C2.44835 6.00238 2.39759 6.07772 2.35627 6.16253C2.3098 6.23904 2.26723 6.31942 2.22466 6.3998C2.16876 6.50534 2.11285 6.6109 2.04808 6.70774C2.0017 6.81695 1.95403 6.92488 1.90637 7.03279C1.77971 7.31959 1.65305 7.60636 1.55069 7.91692C1.40637 8.33433 1.27979 8.76898 1.19479 9.24485C1.10246 9.69112 1.01807 10.269 1.02859 10.7389C0.98338 10.8727 1.00157 11.0883 1.01712 11.2727C1.02176 11.3277 1.02617 11.38 1.02859 11.4264C1.02958 11.4458 1.02147 11.4599 1.01442 11.4721C1.00923 11.4811 1.00462 11.4891 1.00462 11.4975C1.00424 11.6349 1.02836 11.792 1.0489 11.9258C1.06167 12.009 1.07305 12.0831 1.07629 12.1378C1.12655 12.6565 1.21546 13.1368 1.36051 13.5606C1.4197 13.8635 1.52244 14.1229 1.62515 14.3823C1.68159 14.5249 1.73803 14.6674 1.78721 14.8171C1.86804 14.952 1.93978 15.0961 2.01152 15.2401C2.12898 15.476 2.24645 15.7119 2.40385 15.9079C2.56682 16.2242 2.7853 16.4852 3.00379 16.7462C3.04108 16.7908 3.07837 16.8353 3.11539 16.8801L3.21686 16.9871C3.45975 17.2437 3.70287 17.5006 3.99264 17.7101C4.59631 18.2366 5.30675 18.6567 6.07895 19.0143C7.52576 19.7136 9.68691 20.1768 11.6277 20.057L11.7161 20.0456C12.1836 19.9854 12.6513 19.9251 13.0739 19.8199C13.4913 19.6689 13.9708 19.5781 14.4731 19.5121C15.6172 19.4395 16.6042 19.5417 17.4841 19.7964C18.3781 20.0335 19.1457 20.3955 19.8081 20.8639C20.1311 21.0544 20.4063 21.294 20.6811 21.5334L20.7565 21.5989C20.9557 21.7729 21.1311 21.9707 21.3065 22.1684C21.3986 22.2722 21.4906 22.3759 21.5861 22.4762C21.6133 22.5546 21.6566 22.6176 21.6999 22.6804C21.718 22.7067 21.7361 22.733 21.753 22.7604C21.7776 22.7865 21.7898 22.8251 21.8019 22.8638C21.8257 22.9391 21.8495 23.0146 21.9659 22.9976C22.0397 22.9272 22.0083 22.8331 21.9769 22.7386C21.9605 22.6896 21.9442 22.6404 21.9424 22.5943C21.9067 22.5463 21.882 22.4873 21.8573 22.4284C21.8285 22.3593 21.7996 22.2903 21.753 22.2391Z" fill="#E99F38"/>
<path d="M17.3225 15.7419C17.3088 15.7419 17.3015 15.7482 17.2943 15.7544C17.2888 15.7591 17.2833 15.7638 17.2752 15.7657C17.233 15.8575 17.2525 16.0018 17.2752 16.0978C17.3072 16.1644 17.3341 16.2361 17.3611 16.3078C17.4399 16.5177 17.5187 16.7276 17.726 16.8091C17.8554 16.7674 17.8502 16.5901 17.845 16.4135L17.8441 16.3823C17.7825 16.1515 17.6957 15.9455 17.5593 15.7895C17.5331 15.7802 17.5093 15.7695 17.4871 15.7595C17.4241 15.7311 17.3742 15.7086 17.3225 15.7419Z" fill="#E99F38"/>
<path d="M15.6391 16.406C15.6436 16.3789 15.6632 16.3929 15.6632 16.406C16.0834 16.4594 16.2764 16.7408 16.3031 17.1884C16.2656 17.436 16.1269 17.5817 15.8997 17.639C15.3337 17.6485 15.0114 17.1274 15.2122 16.5956C15.2322 16.5793 15.2511 16.562 15.2701 16.5447C15.3583 16.4639 15.4466 16.383 15.6391 16.406Z" fill="#E99F38"/>
</svg>
