<svg width="24" height="24" viewBox="0 0 24 24" fill="none" xmlns="http://www.w3.org/2000/svg">
<path fill-rule="evenodd" clip-rule="evenodd" d="M12 1.00001C13.52 1.00001 15.8654 1.00001 18.0006 1.00001C20.762 1.00001 23 3.23842 23 5.99984C23 8.28767 23 10.7608 23 12C23 13.2393 23 15.7123 23 18.0002C23 20.7616 20.762 23 18.0006 23C15.8654 23 13.52 23 12 23C10.6588 23 8.23263 23 5.99945 23C3.23803 23 1 20.7621 1 18.0007C1 15.8137 1 13.4262 1 12C1 10.6588 1 8.23263 1 5.99945C1 3.23803 3.23786 1 5.99928 1C8.18626 1 10.5738 1.00001 12 1.00001ZM10.5954 8.03262C11.2691 8.03262 11.7469 8.03171 12.4963 8.02822C12.6581 8.02745 12.8682 8.0559 13.0012 8.14812C13.0044 8.15034 13.0076 8.15258 13.0109 8.15483C13.1075 8.2215 13.2284 8.30495 13.23 8.60134C13.232 8.99451 13.2313 9.36776 13.2307 9.73799C13.2296 10.3116 13.2286 10.878 13.2377 11.4999C13.2572 11.7129 13.3962 11.802 13.527 11.8013C13.6577 11.8007 13.8075 11.7189 13.9197 11.6088C14.5271 11.0124 15.2267 9.5778 15.6555 8.63764C15.8063 8.3071 16.0441 8.30783 16.3148 8.30865C16.3314 8.3087 16.3482 8.30875 16.3651 8.30873C16.9555 8.30786 17.3335 8.31221 17.7427 8.31691C18.0096 8.31998 18.2898 8.3232 18.6509 8.32523C18.8184 8.32613 18.9643 8.46724 19.0117 8.56943C19.0527 8.65768 19.0815 8.91389 18.8588 9.27565C18.1739 10.3886 17.5443 11.2845 16.782 12.3425C16.7339 12.4093 16.688 12.4891 16.6896 12.5713C16.691 12.6465 16.7301 12.7203 16.782 12.7748C16.9451 12.9465 17.11 13.1185 17.276 13.2916C17.8014 13.8395 18.3378 14.399 18.8665 14.9969C19.0715 15.2287 18.9437 15.5864 18.8874 15.6866C18.8448 15.7625 18.652 15.9573 18.5222 15.9583C18.2644 15.9604 18.1466 15.9602 17.7717 15.9596C17.4592 15.9591 16.968 15.9583 16.0681 15.9583C15.7749 15.9583 15.6577 15.8727 15.5026 15.7097C14.9716 15.1519 14.9026 15.078 14.5499 14.7003C14.4466 14.5898 14.3191 14.4532 14.1485 14.2709C14.0506 14.1663 13.8564 14.0342 13.6711 14.118C13.6599 14.123 13.6481 14.1282 13.6358 14.1337C13.4744 14.2049 13.2256 14.3147 13.2256 14.5833V15.5942C13.2256 15.7777 12.9378 15.9143 12.7647 15.9143H11.4171C10.7829 15.9143 10.2342 15.7618 9.9299 15.614C8.61881 14.9774 7.83963 14.091 6.98732 12.6153C6.25953 11.3553 5.62642 10.1138 5.00287 8.81364C4.93321 8.66838 4.88318 8.34943 5.40328 8.34943C5.64933 8.34943 5.8886 8.347 6.15287 8.34432C6.47877 8.34102 6.84267 8.33733 7.30413 8.33733C7.54945 8.33733 7.70247 8.38674 7.80574 8.46163C7.90362 8.53262 7.95348 8.62582 8.00135 8.7153C8.00399 8.72022 8.00662 8.72514 8.00925 8.73004C8.22232 9.12679 8.39182 9.44721 8.53306 9.7142C9.08097 10.7499 9.20345 10.9814 9.79349 11.7452C9.86317 11.8354 9.96438 11.8493 10.0388 11.8497C10.1308 11.8502 10.2158 11.8349 10.2874 11.7771C10.4377 11.6559 10.4799 11.5264 10.4799 11.3404V9.38346C10.4799 9.15911 10.3275 8.82697 10.1587 8.72234C10.1156 8.69751 10.0656 8.67269 10.0149 8.64752C9.86005 8.57063 9.69856 8.49043 9.70549 8.39673C9.71555 8.26069 10.032 8.03262 10.5954 8.03262Z" fill="#111D33" fill-opacity="0.64"/>
</svg>
