<svg width="16" height="16" viewBox="0 0 16 16" fill="none" xmlns="http://www.w3.org/2000/svg">
<path fill-rule="evenodd" clip-rule="evenodd" d="M2.03333 8.00003C2.03333 4.70473 4.7047 2.03336 8 2.03336C11.2953 2.03336 13.9667 4.70473 13.9667 8.00003C13.9667 11.2953 11.2953 13.9667 8 13.9667C4.7047 13.9667 2.03333 11.2953 2.03333 8.00003ZM8 0.633362C3.9315 0.633362 0.633331 3.93153 0.633331 8.00003C0.633331 12.0685 3.9315 15.3667 8 15.3667C12.0685 15.3667 15.3667 12.0685 15.3667 8.00003C15.3667 3.93153 12.0685 0.633362 8 0.633362ZM8.7 5.00003C8.7 4.61343 8.3866 4.30003 8 4.30003C7.6134 4.30003 7.3 4.61343 7.3 5.00003V8.25929C7.3 8.4753 7.39973 8.67921 7.57024 8.81183L10.2369 10.8859C10.5421 11.1233 10.9819 11.0683 11.2192 10.7631C11.4566 10.458 11.4016 10.0182 11.0964 9.78082L8.7 7.91693V5.00003Z" fill="#111D33" fill-opacity="0.64"/>
</svg>
