<svg width="90" height="90" viewBox="0 0 90 90" fill="none" xmlns="http://www.w3.org/2000/svg">
<g clip-path="url(#clip0)">
<rect width="90" height="90" rx="6" fill="#F0F0F0"/>
<path d="M1 73C1 48.6995 20.6995 29 45 29C69.3005 29 89 48.6995 89 73V83.5455C89 86.5579 86.5579 89 83.5455 89H6.45455C3.44208 89 1 86.5579 1 83.5455V73Z" fill="url(#paint0_linear)"/>
<g filter="url(#filter0_d)">
<path fill-rule="evenodd" clip-rule="evenodd" d="M47.5169 51.5573C45.4253 54.7535 44.7588 58.6098 45.5142 62.2249C45.638 62.8216 46.1839 63.2215 46.7901 63.1644C50.1354 62.8375 53.2332 61.6028 55.8199 59.6953C56.3087 59.3335 56.4484 58.6701 56.1405 58.1432C54.2837 54.9503 51.2082 52.5317 47.5138 51.5573H47.5169ZM75 45C75 28.4321 61.5679 15 45 15C28.4321 15 15 28.4321 15 45C15 61.5679 28.4321 75 45 75C61.5679 75 75 61.5679 75 45ZM54.1727 17.2122C54.1409 17.2027 54.106 17.19 54.0743 17.1805C54.106 17.19 54.1409 17.2027 54.1727 17.2122ZM41.2357 61.2061C41.0072 59.0161 41.1754 56.7912 41.7404 54.6456C41.9435 53.8775 42.1942 53.1189 42.4989 52.3762C42.6386 52.0303 42.6196 51.678 42.4386 51.351C42.2577 51.0241 41.9689 50.8178 41.6007 50.7575C41.0516 50.6623 40.5121 50.5512 39.9788 50.4243C39.398 50.2878 38.8172 50.5925 38.5982 51.1447C38.5379 51.3003 38.4776 51.4558 38.4204 51.6113C37.8682 53.1189 37.4841 54.671 37.2683 56.2452C37.062 57.7433 37.008 59.2573 37.1064 60.7617C37.135 61.2188 37.4016 61.5965 37.8237 61.7774C38.4363 62.0377 39.0647 62.2694 39.7091 62.463C40.0995 62.5804 40.493 62.5011 40.8104 62.2408C41.1278 61.9805 41.277 61.6092 41.2357 61.2029V61.2061ZM33.7928 52.792C34.0499 51.7763 34.3705 50.7734 34.7482 49.7863C34.9672 49.215 34.7228 48.577 34.1769 48.3009C33.2342 47.8248 32.3265 47.2916 31.4568 46.7076C30.5015 46.0696 29.5906 45.3682 28.7304 44.616C28.3686 44.2986 27.8798 44.2287 27.4418 44.435C27.0038 44.6413 26.7467 45.0603 26.7626 45.5427C26.8864 49.8022 28.4829 53.7283 31.0823 56.7943C31.3934 57.1625 31.8663 57.3022 32.3297 57.1625C32.7931 57.0229 33.1105 56.6452 33.1676 56.1659C33.3009 55.0296 33.5104 53.9029 33.7928 52.7888V52.792ZM31.7266 41.8134C32.9391 42.8386 34.2658 43.7336 35.6813 44.4858C35.8273 44.5652 35.9765 44.6413 36.1257 44.7143C36.6589 44.981 37.2969 44.8191 37.6333 44.3271C37.9444 43.8764 38.2744 43.4289 38.6172 42.9941C38.8489 42.7021 38.9251 42.3561 38.8426 41.9911C38.7569 41.6293 38.5379 41.35 38.2014 41.1881C37.4778 40.839 36.7827 40.4454 36.1193 40.0106C34.2658 38.795 32.6534 37.2524 31.3553 35.4719C31.114 35.1418 30.7554 34.9672 30.346 34.9831C29.9365 35.0021 29.5937 35.2052 29.3811 35.5544C29.0351 36.1257 28.7209 36.716 28.4384 37.3254C28.2448 37.7412 28.2988 38.1983 28.5844 38.5601C29.5176 39.744 30.5713 40.8326 31.7266 41.8102V41.8134ZM43.5559 43.559C43.121 43.997 42.7052 44.4509 42.3117 44.9143C42.026 45.2539 41.9499 45.6919 42.1086 46.1045C42.2672 46.5203 42.6164 46.7964 43.0576 46.8568C43.6606 46.9393 44.27 46.9996 44.8889 47.0313C45.0095 47.0377 45.1301 47.0472 45.2476 47.0535C45.6126 47.0821 45.9395 46.9551 46.1934 46.6917C46.2759 46.606 46.3616 46.5203 46.4441 46.4346C46.8821 45.9966 47.2948 45.5427 47.6883 45.0794C47.974 44.7397 48.0502 44.3017 47.8883 43.886C47.7296 43.4702 47.3804 43.1972 46.9393 43.1337C46.3362 43.0512 45.7268 42.9941 45.1079 42.9592C44.9873 42.9528 44.8667 42.9433 44.7461 42.9369C44.3811 42.9084 44.0542 43.0353 43.8003 43.2988C43.7177 43.3845 43.632 43.4702 43.5495 43.5559L43.5559 43.559ZM52.3667 45.6665C52.0557 46.1172 51.7256 46.5647 51.3828 46.9996C51.1511 47.2916 51.0749 47.6375 51.1574 48.0025C51.2431 48.3644 51.4621 48.6437 51.7986 48.8055C52.5222 49.1547 53.2173 49.5482 53.8807 49.9831C55.7342 51.1987 57.3466 52.7412 58.6447 54.5218C58.8859 54.8519 59.2446 55.0265 59.654 55.0106C60.0635 54.9947 60.4063 54.7884 60.6189 54.4393C60.9649 53.868 61.2791 53.2776 61.5616 52.6682C61.7552 52.2524 61.7012 51.7954 61.4156 51.4336C60.4824 50.2497 59.4287 49.1579 58.2734 48.1835C57.0609 47.1583 55.7342 46.2632 54.3187 45.511C54.1727 45.4348 54.0235 45.3587 53.8743 45.2825C53.3411 45.0159 52.7031 45.1809 52.3667 45.6697V45.6665ZM55.8231 41.6928C56.7658 42.1689 57.6735 42.7021 58.5432 43.2861C59.4985 43.924 60.4094 44.6255 61.2696 45.3777C61.6346 45.6951 62.1202 45.7649 62.5582 45.5586C62.993 45.3523 63.2533 44.9333 63.2374 44.4509C63.1136 40.1915 61.5171 36.2653 58.9177 33.1993C58.6066 32.8311 58.1306 32.6915 57.6703 32.8311C57.2069 32.9708 56.8895 33.3485 56.8324 33.8278C56.6959 34.964 56.4896 36.0939 56.2072 37.2048C55.9501 38.2205 55.6295 39.2234 55.2518 40.2074C55.0328 40.7787 55.2772 41.4166 55.8231 41.6928ZM51.5827 38.3792C52.135 36.8716 52.519 35.3195 52.7349 33.7452C52.9412 32.2471 52.9951 30.7332 52.8967 29.2287C52.8682 28.7717 52.6016 28.394 52.1794 28.2131C51.5669 27.9528 50.9384 27.7211 50.2909 27.5275C49.9006 27.4101 49.507 27.4894 49.1896 27.7497C48.8754 28.0099 48.723 28.3813 48.7643 28.7876C48.9928 30.9776 48.8246 33.2025 48.2628 35.3481C48.0597 36.1162 47.8089 36.8747 47.5042 37.6174C47.3646 37.9634 47.3836 38.3157 47.5645 38.6426C47.7455 38.9695 48.0343 39.1758 48.4025 39.2393C48.9484 39.3345 49.4911 39.4456 50.0243 39.5726C50.6052 39.7091 51.186 39.4044 51.405 38.8521C51.4653 38.6966 51.5256 38.541 51.5827 38.3855V38.3792ZM42.9814 37.6206C44.6794 34.5959 45.1809 31.0855 44.4858 27.7719C44.362 27.1752 43.813 26.7753 43.2099 26.8324C39.8646 27.1593 36.7668 28.394 34.1801 30.3015C33.6913 30.6634 33.5516 31.3267 33.8595 31.8536C35.5607 34.7768 38.284 37.0525 41.5658 38.1634C42.1117 38.3474 42.6989 38.1221 42.9814 37.6206ZM46.2188 22.8682C58.4384 23.541 67.8015 33.9928 67.1287 46.2124C66.4558 58.4321 56.004 67.7952 43.7844 67.1223C31.5647 66.4494 22.2017 55.9977 22.8745 43.778C23.5474 31.5584 33.9992 22.1953 46.2188 22.8682Z" fill="white"/>
</g>
</g>
<defs>
<filter id="filter0_d" x="-15" y="0" width="120" height="120" filterUnits="userSpaceOnUse" color-interpolation-filters="sRGB">
<feFlood flood-opacity="0" result="BackgroundImageFix"/>
<feColorMatrix in="SourceAlpha" type="matrix" values="0 0 0 0 0 0 0 0 0 0 0 0 0 0 0 0 0 0 127 0"/>
<feOffset dy="15"/>
<feGaussianBlur stdDeviation="15"/>
<feColorMatrix type="matrix" values="0 0 0 0 0 0 0 0 0 0 0 0 0 0 0 0 0 0 0.05 0"/>
<feBlend mode="normal" in2="BackgroundImageFix" result="effect1_dropShadow"/>
<feBlend mode="normal" in="SourceGraphic" in2="effect1_dropShadow" result="shape"/>
</filter>
<linearGradient id="paint0_linear" x1="45" y1="29" x2="45" y2="89" gradientUnits="userSpaceOnUse">
<stop stop-color="#C4C4C4" stop-opacity="0.15"/>
<stop offset="1" stop-color="#C4C4C4" stop-opacity="0"/>
</linearGradient>
<clipPath id="clip0">
<rect width="90" height="90" rx="6" fill="white"/>
</clipPath>
</defs>
</svg>
